#!OML:ASF E:\Style4\Style4.ASF
:FULLY-SPECIFIED
:DEGREES
1165
root -1.11886 17.3768 -2.46982 9.70744 -8.56154 -6.49201
lowerback 19.2051 -0.0674453 -9.87588
upperback 11.1662 -1.74293 -4.01662
thorax 1.59496 -1.25008 1.56578
lowerneck 5.18251 -16.1724 -9.89798
upperneck 22.5801 -20.5021 -5.66063
head 6.62852 -10.9005 -1.2136
rclavicle -2.22639e-014 -3.33958e-014
rhumerus 73.6781 9.45389 -739.047
rradius 22.7363
rwrist 744.068
rhand -6.67973 6.53371
rfingers 7.12502
rthumb 19.1788 -22.5406
lclavicle -2.22639e-014 -3.33958e-014
lhumerus 54.7914 31.0624 27.6742
lradius 121.736
lwrist 49.5472
lhand 6.88877 27.816
lfingers 7.12502
lthumb 32.1698 54.9877
rfemur -32.4158 0.338467 31.7938
rtibia 36.6142
rfoot -13.2527 -11.9611
rtoes -0.292011
lfemur -34.814 10.25 -7.4105
ltibia 45.4087
lfoot -17.5751 10.7553
ltoes -17.6303
1166
root -1.16378 17.3706 -2.45777 9.65 -7.51784 -6.48373
lowerback 19.2681 -0.0761174 -10.2955
upperback 11.0105 -1.82537 -3.72775
thorax 1.43615 -1.30546 2.12491
lowerneck 5.22467 -15.8313 -10.2434
upperneck 22.849 -19.9527 -6.08609
head 6.69323 -10.6917 -1.27545
rclavicle 1.11319e-014 -2.22639e-014
rhumerus 74.6263 10.1925 -741.745
rradius 21.7636
rwrist 747.984
rhand -5.05654 7.58617
rfingers 7.12502
rthumb 20.7391 -21.3256
lclavicle 1.11319e-014 -2.22639e-014
lhumerus 53.6621 31.2028 27.2203
lradius 121.753
lwrist 49.5541
lhand 6.82085 27.8884
lfingers 7.12502
lthumb 32.1052 55.0732
rfemur -32.5437 -0.0742382 31.9657
rtibia 36.9656
rfoot -13.6196 -12.4715
rtoes 0.0516218
lfemur -35.063 9.83504 -7.25614
ltibia 45.3701
lfoot -17.4182 10.2892
ltoes -17.4182
1167
root -1.20712 17.365 -2.44178 9.55019 -6.49021 -6.3277
lowerback 19.3156 -0.0663282 -10.8803
upperback 10.8446 -1.91009 -3.46673
thorax 1.28735 -1.36701 2.7458
lowerneck 5.25948 -15.473 -10.5268
upperneck 23.2585 -19.3547 -6.61349
head 6.78889 -10.4677 -1.38021
rclavicle -4.77083e-015 -1.27222e-014
rhumerus 75.4902 11.0937 -744.33
rradius 20.7753
rwrist 751.845
rhand -3.96496 8.46913
rfingers 7.12502
rthumb 21.7876 -20.3245
lclavicle -4.77083e-015 -1.27222e-014
lhumerus 52.4483 31.2384 26.713
lradius 121.842
lwrist 49.4902
lhand 6.75902 28.1097
lfingers 7.12502
lthumb 32.0463 55.3064
rfemur -32.6395 -0.578143 31.9771
rtibia 37.342
rfoot -14.0503 -12.9139
rtoes 0.36188
lfemur -35.2671 9.39429 -7.27587
ltibia 45.3423
lfoot -17.3461 9.79776
ltoes -17.0719
1168
root -1.25044 17.3566 -2.43084 9.45033 -5.44912 -6.07466
lowerback 19.4885 -0.0545863 -11.6728
upperback 10.6306 -2.04838 -3.16817
thorax 1.04901 -1.45714 3.53587
lowerneck 5.58859 -15.0421 -10.896
upperneck 23.2037 -18.7478 -6.93638
head 6.71418 -10.2196 -1.36281
rclavicle -1.27222e-014 3.49861e-014
rhumerus 76.4636 12.1695 -746.736
rradius 19.7575
rwrist 755.303
rhand -2.93569 9.25195
rfingers 7.12502
rthumb 22.7757 -19.4236
lclavicle -1.27222e-014 3.49861e-014
lhumerus 51.0057 31.407 26.099
lradius 122.041
lwrist 49.5484
lhand 6.74446 28.2787
lfingers 7.12502
lthumb 32.0324 55.4782
rfemur -32.7799 -1.04979 31.8781
rtibia 37.7292
rfoot -14.3154 -13.4354
rtoes 0.127852
lfemur -35.5061 8.87259 -7.3869
ltibia 45.3085
lfoot -17.0913 9.33606
ltoes -16.8448
1169
root -1.29416 17.3442 -2.42349 9.38828 -4.43504 -5.96166
lowerback 19.7637 -0.0118076 -12.456
upperback 10.3592 -2.16878 -2.7684
thorax 0.702947 -1.52987 4.43427
lowerneck 6.04201 -14.6156 -11.2095
upperneck 23.0019 -18.1474 -7.41753
head 6.54993 -9.97207 -1.38107
rclavicle 3.33958e-014 -3.49861e-014
rhumerus 77.6379 13.5528 -744.629
rradius 20.2165
rwrist 754.313
rhand -1.63227 9.30218
rfingers 7.12502
rthumb 24.0261 -19.214
lclavicle 3.33958e-014 -3.49861e-014
lhumerus 49.4319 31.6203 25.4326
lradius 122.034
lwrist 49.7214
lhand 6.83053 27.9444
lfingers 7.12502
lthumb 32.1144 55.1274
rfemur -32.9793 -1.39791 31.925
rtibia 38.152
rfoot -14.646 -14.0167
rtoes 0.205658
lfemur -35.7948 8.39959 -7.34058
ltibia 45.28
lfoot -16.6909 8.94022
ltoes -17.1796
1170
root -1.33646 17.3358 -2.41188 9.34294 -3.41752 -5.94842
lowerback 20.0066 0.0347445 -13.0497
upperback 10.0834 -2.25398 -2.40534
thorax 0.351396 -1.57135 5.1858
lowerneck 6.43534 -14.2065 -11.3651
upperneck 23.0186 -17.5469 -7.96774
head 6.44619 -9.72405 -1.45863
rclavicle -3.65764e-014 -3.49861e-014
rhumerus 78.7237 14.9057 -742.564
rradius 20.7069
rwrist 753.208
rhand -0.356888 9.27624
rfingers 7.12502
rthumb 25.2485 -19.0732
lclavicle -3.65764e-014 -3.49861e-014
lhumerus 47.9575 31.6167 24.7308
lradius 121.79
lwrist 49.709
lhand 6.9137 27.4156
lfingers 7.12502
lthumb 32.1935 54.5825
rfemur -33.1824 -1.77393 32.0711
rtibia 38.5984
rfoot -15.0913 -14.5243
rtoes 0.519545
lfemur -36.0674 7.88723 -7.17744
ltibia 45.2457
lfoot -16.4107 8.59555
ltoes -17.4238
1171
root -1.37804 17.3285 -2.39528 9.27269 -2.38142 -5.78857
lowerback 20.2308 0.0809796 -13.7676
upperback 9.82951 -2.36058 -2.1005
thorax 0.048273 -1.62573 5.94872
lowerneck 6.79897 -13.7698 -11.5783
upperneck 23.0701 -16.9433 -8.30879
head 6.38609 -9.46854 -1.47553
rclavicle 3.49861e-014 5.725e-014
rhumerus 79.7493 16.2467 -741.378
rradius 21.0698
rwrist 752.866
rhand 1.20568 9.2521
rfingers 7.12502
rthumb 26.7447 -18.8776
lclavicle 3.49861e-014 5.725e-014
lhumerus 46.485 31.5054 24.0269
lradius 121.733
lwrist 49.4245
lhand 6.95829 27.267
lfingers 7.12502
lthumb 32.236 54.4253
rfemur -33.3593 -2.2663 32.0658
rtibia 39.0611
rfoot -15.431 -15.009
rtoes 0.408974
lfemur -36.3057 7.35059 -7.20131
ltibia 45.2189
lfoot -16.2291 8.35611
ltoes -18.4115
1172
root -1.41827 17.317 -2.37858 9.23529 -1.30563 -5.55764
lowerback 19.7093 1.07849 -7.88746
upperback 11.7547 0.0877121 -5.0254
thorax 1.77748 -0.19033 -0.934648
lowerneck 3.2882 -15.9457 -7.74004
upperneck 24.8534 -19.8983 -5.77891
head 7.41427 -10.4819 -1.75261
rclavicle 1.59028e-015 3.02153e-014
rhumerus 73.1273 10.6657 -748.27
rradius 20.0677
rwrist 756.947
rhand 2.34201 9.73583
rfingers 7.12502
rthumb 27.8316 -18.2229
lclavicle 1.59028e-015 3.02153e-014
lhumerus 56.8502 29.8577 27.762
lradius 121.578
lwrist 48.6625
lhand 6.98839 27.1499
lfingers 7.12502
lthumb 32.2646 54.3024
rfemur -33.5842 -2.84331 31.9997
rtibia 39.5269
rfoot -15.7985 -15.4433
rtoes 0.625872
lfemur -36.6064 6.77796 -7.30555
ltibia 45.2042
lfoot -16.0388 8.0363
ltoes -18.9673
1173
root -1.45613 17.3052 -2.3614 9.22453 -0.281313 -5.36721
lowerback 19.7366 1.23937 -7.62551
upperback 11.933 0.358929 -5.08668
thorax 1.94902 -0.0405786 -1.1965
lowerneck 2.93249 -15.8657 -7.69667
upperneck 25.0064 -19.7973 -5.52596
head 7.54494 -10.4084 -1.71872
rclavicle -1.27222e-014 -3.49861e-014
rhumerus 73.0848 10.8953 -748.295
rradius 20.2614
rwrist 757.468
rhand 3.64464 10.0196
rfingers 7.12502
rthumb 29.0764 -17.7309
lclavicle -1.27222e-014 -3.49861e-014
lhumerus 57.144 29.8047 27.8967
lradius 121.538
lwrist 48.5042
lhand 7.07043 27.2254
lfingers 7.12502
lthumb 32.3427 54.362
rfemur -33.836 -3.38044 31.967
rtibia 40.0046
rfoot -16.2602 -15.843
rtoes 1.27148
lfemur -36.9257 6.24434 -7.3753
ltibia 45.2088
lfoot -15.8389 7.64446
ltoes -19.1078
1174
root -1.49214 17.2918 -2.3451 9.22014 0.718777 -5.24692
lowerback 19.7214 1.3956 -7.477
upperback 12.0245 0.604475 -5.05808
thorax 2.04957 0.0901893 -1.2925
lowerneck 2.75017 -15.7643 -7.61118
upperneck 25.2969 -19.6047 -5.62921
head 7.64976 -10.3149 -1.77926
rclavicle 1.59028e-015 1.43125e-014
rhumerus 73.1022 11.427 -748.17
rradius 20.5036
rwrist 757.87
rhand 4.97735 10.0961
rfingers 7.12502
rthumb 30.3484 -17.4275
lclavicle 1.59028e-015 1.43125e-014
lhumerus 57.1128 29.7255 27.7833
lradius 121.508
lwrist 48.3516
lhand 6.96271 27.2045
lfingers 7.12502
lthumb 32.2402 54.362
rfemur -34.0994 -3.82665 31.9879
rtibia 40.481
rfoot -16.6921 -16.3053
rtoes 1.64572
lfemur -37.2511 5.73614 -7.35928
ltibia 45.2316
lfoot -15.6613 7.21888
ltoes -18.9307
1175
root -1.52886 17.2775 -2.3309 9.22829 1.77143 -5.13058
lowerback 19.752 1.61092 -7.46425
upperback 12.023 0.892742 -4.94154
thorax 2.0228 0.235877 -1.22604
lowerneck 2.79189 -15.6942 -7.53859
upperneck 25.7046 -19.4403 -5.83975
head 7.74891 -10.2444 -1.85898
rclavicle 2.06736e-014 -2.06736e-014
rhumerus 73.048 12.1571 -747.579
rradius 20.7244
rwrist 757.775
rhand 5.9666 9.86252
rfingers 7.12502
rthumb 31.2915 -17.483
lclavicle 2.06736e-014 -2.06736e-014
lhumerus 57.1127 29.5104 27.7738
lradius 121.447
lwrist 48.2119
lhand 6.89425 27.217
lfingers 7.12502
lthumb 32.175 54.3877
rfemur -34.3861 -4.30285 32.0338
rtibia 40.9569
rfoot -17.117 -16.7608
rtoes 2.11184
lfemur -37.6286 5.2193 -7.33361
ltibia 45.255
lfoot -15.4375 6.78375
ltoes -19.1996
1176
root -1.56355 17.2642 -2.31547 9.23695 2.85374 -4.98779
lowerback 19.8483 1.78278 -7.13585
upperback 12.1846 1.18073 -4.96233
thorax 2.14697 0.399676 -1.48501
lowerneck 2.32446 -15.6844 -7.49974
upperneck 26.1613 -19.3678 -5.8166
head 7.98059 -10.2017 -1.9226
rclavicle -6.36111e-015 -3.33958e-014
rhumerus 73.0364 12.5443 -746.733
rradius 20.943
rwrist 757.269
rhand 6.73276 9.87802
rfingers 7.12502
rthumb 32.0213 -17.3237
lclavicle -6.36111e-015 -3.33958e-014
lhumerus 57.4943 29.4405 27.9298
lradius 121.448
lwrist 48.1914
lhand 7.00045 27.4529
lfingers 7.12502
lthumb 32.2761 54.6031
rfemur -34.6733 -4.87026 32.0593
rtibia 41.4371
rfoot -17.6074 -17.1658
rtoes 2.49288
lfemur -38.0084 4.6978 -7.35343
ltibia 45.2773
lfoot -15.2294 6.36884
ltoes -19.6307
1177
root -1.59758 17.2526 -2.29564 9.25187 3.9123 -4.74223
lowerback 19.7882 1.91783 -7.36087
upperback 12.2002 1.34118 -4.82435
thorax 2.18778 0.465996 -1.23889
lowerneck 2.57157 -15.5316 -7.56767
upperneck 26.1491 -19.1138 -5.99974
head 7.92059 -10.0947 -1.92678
rclavicle 1.11319e-014 7.15625e-014
rhumerus 73.3161 13.4671 -746.049
rradius 21.1805
rwrist 757
rhand 7.61931 10.0634
rfingers 7.12502
rthumb 32.865 -16.9652
lclavicle 1.11319e-014 7.15625e-014
lhumerus 57.0509 29.2998 27.7782
lradius 121.525
lwrist 48.2297
lhand 7.15087 27.7375
lfingers 7.12502
lthumb 32.4193 54.8585
rfemur -34.943 -5.51284 31.9838
rtibia 41.9322
rfoot -18.0848 -17.5444
rtoes 2.65963
lfemur -38.3487 4.13801 -7.49009
ltibia 45.3024
lfoot -15.0138 5.90166
ltoes -19.6317
1178
root -1.63115 17.239 -2.27693 9.27156 4.96745 -4.52794
lowerback 19.7882 2.00717 -7.12444
upperback 12.427 1.5257 -4.85502
thorax 2.43877 0.571071 -1.4362
lowerneck 1.90751 -15.4526 -7.73822
upperneck 26.5955 -18.8961 -6.07825
head 8.19573 -10.008 -2.00297
rclavicle -4.77083e-015 -6.67916e-014
rhumerus 73.5246 13.8487 -745.706
rradius 21.352
rwrist 756.981
rhand 8.65492 10.2562
rfingers 7.12502
rthumb 33.8495 -16.5609
lclavicle -4.77083e-015 -6.67916e-014
lhumerus 57.1715 29.3343 27.7505
lradius 121.459
lwrist 48.0281
lhand 7.22725 27.4201
lfingers 7.12502
lthumb 32.492 54.5261
rfemur -35.2306 -6.17167 31.9495
rtibia 42.431
rfoot -18.5008 -17.935
rtoes 2.33753
lfemur -38.6919 3.59216 -7.58574
ltibia 45.341
lfoot -14.7973 5.35514
ltoes -18.9978
1179
root -1.66118 17.2229 -2.25659 9.3258 5.98733 -4.33172
lowerback 19.7254 2.16777 -6.84101
upperback 12.6227 1.81294 -4.90711
thorax 2.6889 0.732904 -1.69815
lowerneck 1.14916 -15.4251 -7.51428
upperneck 27.2444 -18.7049 -6.39798
head 8.48942 -9.92294 -2.22052
rclavicle -3.33958e-014 2.06736e-014
rhumerus 73.6413 14.2489 -744.752
rradius 21.5831
rwrist 756.294
rhand 9.67659 10.4102
rfingers 7.12502
rthumb 34.8195 -16.1879
lclavicle -3.33958e-014 2.06736e-014
lhumerus 57.5687 29.1377 27.8312
lradius 121.32
lwrist 47.8159
lhand 7.15742 27.1206
lfingers 7.12502
lthumb 32.4255 54.2402
rfemur -35.5733 -6.78601 31.9216
rtibia 42.9532
rfoot -18.8996 -18.3156
rtoes 2.38091
lfemur -39.0625 3.07558 -7.68004
ltibia 45.3847
lfoot -14.6544 4.95987
ltoes -19.1837
